<?xml version="1.0" encoding="UTF-8"?> <svg xmlns="http://www.w3.org/2000/svg" viewBox="0 0 311.95 111.75"> <defs> <style>.cls-1{fill:#9c8b2e;}.cls-2{fill:#cbbc2b;}.cls-3{fill:#009993;}.cls-4{fill:#121618;}.cls-5{fill:#5a5b5a;}.cls-6{fill:#c7c3c2;}.cls-7{fill:#9b3470;}.cls-8{fill:#a2a29f;}.cls-9{fill:#fff;}.cls-10{fill:#b9dbdf;}.cls-11{fill:#201e19;}.cls-12{fill:none;stroke:#4a9993;stroke-width:0.71px;}.cls-12,.cls-14,.cls-15{stroke-miterlimit:10;}.cls-13{fill:#e1e3e0;}.cls-14{fill:#a5a093;stroke-width:0.02px;}.cls-14,.cls-15{stroke:#201e19;}.cls-15{fill:#474233;stroke-width:0.01px;}.cls-16{fill:#1e1b17;}</style> </defs> <title>PETS</title> <g id="Слой_2" data-name="Слой 2"> <g id="bigovka"> <path class="cls-1" d="M55.31,63.85a5.81,5.81,0,0,0-2.77-.33,42.72,42.72,0,0,0-12.32,4.21c-4.7,2.54-11.55,6.33-15.06,8.72s-4.2,1.78-4.11,1.36c.29-1.45,1.66-1.55,1.2-1.89s-5.38,3.8-6.25,4.56a18.88,18.88,0,0,1-2.32,1.64c-.26.16-.69.13-.33-.7s-.26-.17-.26-.17-2.61,1.86-6.53,7.12-1-.38-1-.38S7.2,85.45,9,83.28s3.54-4,3.83-4.32-.26-.27-.26-.27-1.28.5-.41-.49a31.86,31.86,0,0,1,2.86-3,39.31,39.31,0,0,1,5.92-4.41c1.15-.61-.21-.56-.21-.56s-1.3.28.11-1.21a11,11,0,0,1,3.76-2.33,97.78,97.78,0,0,1,11-4.1,61.54,61.54,0,0,1,10.95-2.16,14.74,14.74,0,0,1,5,.23,35.32,35.32,0,0,1,3.76,2Z"></path> <path class="cls-2" d="M55.31,63.34A6.22,6.22,0,0,0,52.54,63a44.69,44.69,0,0,0-12.32,4c-4.7,2.4-11.55,6-15.06,8.24S21,76.9,21.05,76.5c.29-1.36,1.66-1.46,1.2-1.78S16.87,78.31,16,79a20.51,20.51,0,0,1-2.32,1.56c-.26.15-.69.11-.33-.67s-.26-.16-.26-.16-2.61,1.76-6.53,6.72-1-.35-1-.35S7.2,83.71,9,81.67s3.54-3.77,3.83-4.08-.26-.26-.26-.26-1.28.48-.41-.46A31.12,31.12,0,0,1,15,74.08a39.54,39.54,0,0,1,5.92-4.16c1.15-.58-.21-.53-.21-.53s-1.3.27.11-1.14a11.26,11.26,0,0,1,3.76-2.2,99.81,99.81,0,0,1,11-3.86,64.15,64.15,0,0,1,10.95-2,15.58,15.58,0,0,1,5,.21,36,36,0,0,1,3.76,1.88Z"></path> <path class="cls-1" d="M55.45,62.67s-16.21-4.74-22.52-5S16.69,57.28,15.15,57,.75,51.92,1.3,53a1.33,1.33,0,0,0,.45.31c-.35,0-.52,0-.45.12.45.83,15.28,5.57,21.5,7.33l2.65.66c1.17,0,13.06.37,13.06.37s5.6.48,10.18.92c3,.3,5.6.58,5.82.69a2.38,2.38,0,0,1,.86,1l.08-1.22h0Z"></path> <path class="cls-2" d="M46.31,58.17c-6.72-2.23-13.36-4.87-17.16-4s-12.39.93-13.61.43-6-2.34-8.83-2.34-9.58-.21-5.36.93c.45.7,15.27,4.66,21.49,6.13l2.66.55c1.17,0,13.06.31,13.06.31s5.6.4,10.18.77a25,25,0,0,1,5.29.91,8.53,8.53,0,0,1,1.39.91l0-1.32S52.85,60.34,46.31,58.17Z"></path> <path class="cls-1" d="M118.65,63.85a5.81,5.81,0,0,1,2.77-.33,42.72,42.72,0,0,1,12.32,4.21c4.7,2.54,11.55,6.33,15.06,8.72s4.2,1.78,4.11,1.36c-.29-1.45-1.66-1.55-1.2-1.89s5.38,3.8,6.25,4.56a20.58,20.58,0,0,0,2.32,1.64c.26.16.69.13.33-.7s.26-.17.26-.17,2.61,1.86,6.53,7.12,1-.38,1-.38-1.66-2.54-3.41-4.71-3.54-4-3.83-4.32.26-.27.26-.27,1.28.5.41-.49a31.86,31.86,0,0,0-2.86-3,39.31,39.31,0,0,0-5.92-4.41c-1.15-.61.21-.56.21-.56s1.3.28-.11-1.21a11,11,0,0,0-3.76-2.33,98.12,98.12,0,0,0-11-4.1,61.79,61.79,0,0,0-11-2.16,14.74,14.74,0,0,0-5,.23,35.32,35.32,0,0,0-3.76,2Z"></path> <path class="cls-2" d="M118.65,63.34a6.22,6.22,0,0,1,2.77-.32,44.69,44.69,0,0,1,12.32,4c4.7,2.4,11.55,6,15.06,8.24s4.2,1.67,4.11,1.27c-.29-1.36-1.66-1.46-1.2-1.78s5.38,3.59,6.25,4.3a22.53,22.53,0,0,0,2.32,1.56c.26.15.69.11.33-.67s.26-.16.26-.16,2.61,1.76,6.53,6.72,1-.35,1-.35-1.66-2.41-3.41-4.45-3.54-3.77-3.83-4.08.26-.26.26-.26,1.28.48.41-.46A31.12,31.12,0,0,0,159,74.08a39.54,39.54,0,0,0-5.92-4.16c-1.15-.58.21-.53.21-.53s1.3.27-.11-1.14a11.26,11.26,0,0,0-3.76-2.2,100.15,100.15,0,0,0-11-3.86,64.41,64.41,0,0,0-11-2,15.58,15.58,0,0,0-5,.21,36,36,0,0,0-3.76,1.88Z"></path> <path class="cls-1" d="M118.52,62.67s16.2-4.74,22.51-5,16.24-.43,17.78-.73,14.4-5.06,13.85-4a1.33,1.33,0,0,1-.45.31c.35,0,.52,0,.45.12-.45.83-15.27,5.57-21.49,7.33l-2.66.66c-1.17,0-13.06.37-13.06.37s-5.6.48-10.18.92c-3,.3-5.6.58-5.82.69a2.38,2.38,0,0,0-.86,1l-.07-1.22h0Z"></path> <path class="cls-2" d="M127.65,58.17c6.72-2.23,13.36-4.87,17.17-4s12.38.93,13.6.43,6-2.34,8.83-2.34,9.58-.21,5.36.93c-.45.7-15.27,4.66-21.49,6.13l-2.66.55c-1.16,0-13.06.31-13.06.31s-5.6.4-10.18.77a25,25,0,0,0-5.29.91,8.53,8.53,0,0,0-1.39.91l0-1.32S121.11,60.34,127.65,58.17Z"></path> <path class="cls-2" d="M125.56,108.11c-.63-3.66-7.07-51.79-7.94-58.29a.58.58,0,0,1,.6-.62c2.32-.16,8.51-.21,7.15-12.2-1.58-13.89-1.63-18.48-1.63-18.78v0a21.54,21.54,0,0,1,.1-4.2c.28-1.55.84-5.78.88-6.07v0a16.44,16.44,0,0,0-.15-4.11C123.22-1.16,116.75-.3,114.35,1c-2.64,1.47-3.46,4.8-3.69,6.05a79.28,79.28,0,0,0-.8,9.27.54.54,0,0,1-.55.53l-44,.05a.56.56,0,0,1-.55-.53c-.05-1.58-.07-7.22-.8-10.14A7.69,7.69,0,0,0,60.08,1,7.76,7.76,0,0,0,53.42.71a6.23,6.23,0,0,0-3.51,6.37c.14,2,.59,5.35.87,7a21.7,21.7,0,0,1,.11,4.19v0c0,.3-.06,4.9-1.64,18.78-1.36,12,4.92,12.06,7.15,12.2.36,0,.65.27.6.63-.87,6.5-7.3,54.62-7.94,58.28s2,3.62,2.3,3.6H74a.56.56,0,0,0,.55-.56v-6.57a.55.55,0,0,1,.55-.56l24.34,0a.55.55,0,0,1,.55.55v6.58a.56.56,0,0,0,.56.55h22.67C123.51,111.72,126.21,111.85,125.56,108.11Z"></path> <rect class="cls-1" x="78.18" y="45.79" width="18.25" height="3.51" rx="1.5" ry="1.5"></rect> <path class="cls-3" d="M90,54.45l-.68,6.84a.22.22,0,0,0,.24.25l2.93-.29a.23.23,0,0,1,.22.35l-6.34,9.71a.23.23,0,0,1-.42-.15l.64-6.53a.23.23,0,0,0-.24-.25l-3.21.16a.23.23,0,0,1-.2-.35l6.65-9.89A.22.22,0,0,1,90,54.45Z"></path> <rect class="cls-4" x="67.67" y="84.15" width="5.41" height="5.41" rx="0.53" ry="0.53"></rect> <path class="cls-5" d="M72.58,87.87v-2.1a.4.4,0,0,1,.11-.27.25.25,0,0,0,.06-.17v-.55a.27.27,0,0,0-.26-.27h-.55a.28.28,0,0,0-.18.06.4.4,0,0,1-.27.11H69.17a.36.36,0,0,1-.26-.11.28.28,0,0,0-.18-.06h-.55a.27.27,0,0,0-.27.27v.55a.24.24,0,0,0,.11.21.4.4,0,0,1,.16.31V88a.46.46,0,0,1-.11.27.24.24,0,0,0-.07.18V89a.27.27,0,0,0,.27.26h.55a.24.24,0,0,0,.16,0,.35.35,0,0,1,.22-.08h2.44a.4.4,0,0,1,.23.08.21.21,0,0,0,.15,0h.55a.27.27,0,0,0,.27-.26V88.4a.27.27,0,0,0-.11-.22A.37.37,0,0,1,72.58,87.87Z"></path> <path class="cls-4" d="M71.72,86.86a1.35,1.35,0,1,1-1.34-1.34A1.34,1.34,0,0,1,71.72,86.86Z"></path> <circle class="cls-6" cx="68.83" cy="88.41" r="0.56"></circle> <circle class="cls-6" cx="68.83" cy="85.31" r="0.56"></circle> <circle class="cls-6" cx="71.92" cy="85.31" r="0.56"></circle> <circle class="cls-6" cx="71.92" cy="88.39" r="0.56"></circle> <rect class="cls-4" x="101.54" y="84.15" width="5.41" height="5.41" rx="0.53" ry="0.53"></rect> <path class="cls-5" d="M106.45,87.87v-2.1a.4.4,0,0,1,.11-.27.25.25,0,0,0,.06-.17v-.55a.27.27,0,0,0-.27-.27h-.54a.28.28,0,0,0-.18.06.4.4,0,0,1-.27.11H103a.4.4,0,0,1-.27-.11.24.24,0,0,0-.17-.06h-.55a.27.27,0,0,0-.27.27v.55a.24.24,0,0,0,.11.21.4.4,0,0,1,.16.31V88a.46.46,0,0,1-.11.27.24.24,0,0,0-.07.18V89a.27.27,0,0,0,.27.26h.55a.24.24,0,0,0,.16,0,.35.35,0,0,1,.22-.08h2.44a.4.4,0,0,1,.23.08.21.21,0,0,0,.15,0h.55a.27.27,0,0,0,.27-.26V88.4a.27.27,0,0,0-.11-.22A.37.37,0,0,1,106.45,87.87Z"></path> <path class="cls-4" d="M105.59,86.86a1.35,1.35,0,1,1-1.34-1.34A1.34,1.34,0,0,1,105.59,86.86Z"></path> <path class="cls-6" d="M102.7,87.85a.56.56,0,1,0,.56.56A.56.56,0,0,0,102.7,87.85Z"></path> <path class="cls-6" d="M102.7,84.75a.56.56,0,1,0,.56.56A.56.56,0,0,0,102.7,84.75Z"></path> <circle class="cls-6" cx="105.79" cy="85.31" r="0.56"></circle> <circle class="cls-6" cx="105.79" cy="88.39" r="0.56"></circle> <circle id="ухо_правое" data-name="ухо правое" class="cls-1" cx="118.52" cy="7.41" r="2.57"></circle> <path id="ухо_левое" data-name="ухо левое" class="cls-1" d="M59,7.41a2.58,2.58,0,1,1-2.58-2.57A2.58,2.58,0,0,1,59,7.41Z"></path> <path class="cls-7" d="M96.36,48l-9,.12-9-.12c-.07,0-.07.18-.07.18,0,.41,1.2,1.71,2,2.21A27.27,27.27,0,0,0,85,52.6a7.11,7.11,0,0,0,2.24.48h.22a7.11,7.11,0,0,0,2.24-.48,26.93,26.93,0,0,0,4.72-2.23c.85-.5,2.09-1.8,2.05-2.21C96.43,48.16,96.44,48,96.36,48Z"></path> <g id="таблетка"> <path class="cls-8" d="M82.38,47.49v1.72c0,.42,2.21.75,4.93.75s4.93-.33,4.93-.75V47.49Z"></path> <path class="cls-9" d="M92.24,47.49c0,.42-2.21.75-4.93.75s-4.93-.33-4.93-.75,2.21-.74,4.93-.74S92.24,47.08,92.24,47.49Z"></path> </g> <path class="cls-1" d="M102.49,33.69v-.08a7.68,7.68,0,0,0-7.68-7.68h-15a7.68,7.68,0,0,0-7.68,7.68v.08a7.67,7.67,0,0,0,7.68,7.67h15A7.68,7.68,0,0,0,102.49,33.69Z"></path> <circle class="cls-9" cx="79.23" cy="33.65" r="4.35"></circle> <circle class="cls-10" cx="79.19" cy="34.23" r="3.73"></circle> <path class="cls-11" d="M81.63,35.16a2.35,2.35,0,1,1-2.34-2.34A2.35,2.35,0,0,1,81.63,35.16Z"></path> <path class="cls-9" d="M77.7,34.48s-.11-.57.62-.83S77.7,34.48,77.7,34.48Z"></path> <path class="cls-9" d="M99.74,33.65a4.35,4.35,0,1,1-4.35-4.35A4.35,4.35,0,0,1,99.74,33.65Z"></path> <circle class="cls-10" cx="95.34" cy="34.23" r="3.73"></circle> <path class="cls-11" d="M97.79,35.16a2.35,2.35,0,1,1-2.34-2.34A2.35,2.35,0,0,1,97.79,35.16Z"></path> <path class="cls-9" d="M94.12,34.4a.77.77,0,0,1,.61-.83C95.46,33.31,94.12,34.4,94.12,34.4Z"></path> <path class="cls-4" d="M79.83,94.79H95a1.11,1.11,0,0,0,1-.94c.07-.71.08-11.06.08-14.22a1.36,1.36,0,0,0-1.38-1.23H91.48a.31.31,0,0,1-.31-.31V74.5a1,1,0,0,0-1-1H84.24a1,1,0,0,0-1,1v3.59a.31.31,0,0,1-.31.31h-3.1a1.25,1.25,0,0,0-1.24,1.11c0,2.51.18,12.75.2,14.07C78.81,95.09,79.83,94.79,79.83,94.79Z"></path> <path class="cls-12" d="M88.46,77.48H86a1.54,1.54,0,0,1-1.54-1.54h0A1.54,1.54,0,0,1,86,74.4h2.49A1.54,1.54,0,0,1,90,75.94h0A1.54,1.54,0,0,1,88.46,77.48Z"></path> <circle class="cls-12" cx="85.74" cy="75.94" r="0.09"></circle> <circle class="cls-12" cx="88.68" cy="75.94" r="0.09"></circle> <rect class="cls-13" x="86.93" y="79.52" width="0.69" height="1.94" rx="0.09" ry="0.09"></rect> <rect class="cls-14" x="86.93" y="80.01" width="0.69" height="1"></rect> <path class="cls-15" d="M87.34,80.51a.06.06,0,0,1-.06.06.06.06,0,0,1-.06-.06.05.05,0,0,1,.06-.06A.06.06,0,0,1,87.34,80.51Z"></path> <rect class="cls-13" x="90" y="79.52" width="0.69" height="1.94" rx="0.09" ry="0.09"></rect> <rect class="cls-14" x="90" y="80.01" width="0.69" height="1"></rect> <path class="cls-15" d="M90.41,80.51a.06.06,0,0,1-.12,0,.06.06,0,0,1,.12,0Z"></path> <rect class="cls-13" x="93.08" y="79.52" width="0.69" height="1.94" rx="0.09" ry="0.09"></rect> <rect class="cls-14" x="93.08" y="80.01" width="0.69" height="1"></rect> <path class="cls-15" d="M93.49,80.51a.07.07,0,0,1-.07.06.06.06,0,0,1-.06-.06.06.06,0,0,1,.06-.06S93.49,80.47,93.49,80.51Z"></path> <rect class="cls-13" x="83.86" y="79.52" width="0.69" height="1.94" rx="0.09" ry="0.09"></rect> <rect class="cls-14" x="83.86" y="80.01" width="0.69" height="1"></rect> <path class="cls-15" d="M84.27,80.51a.07.07,0,0,1-.07.06.06.06,0,0,1-.06-.06.06.06,0,0,1,.06-.06S84.27,80.47,84.27,80.51Z"></path> <rect class="cls-13" x="80.78" y="79.52" width="0.69" height="1.94" rx="0.09" ry="0.09"></rect> <rect class="cls-14" x="80.78" y="80.01" width="0.69" height="1"></rect> <path class="cls-15" d="M81.19,80.51a.06.06,0,1,1-.12,0,.06.06,0,1,1,.12,0Z"></path> <rect class="cls-13" x="86.93" y="82.63" width="0.69" height="1.94" rx="0.09" ry="0.09"></rect> <rect class="cls-14" x="86.93" y="83.12" width="0.69" height="1"></rect> <path class="cls-15" d="M87.34,83.62a.06.06,0,0,1-.06.06.05.05,0,0,1-.06-.06.06.06,0,0,1,.06-.06A.06.06,0,0,1,87.34,83.62Z"></path> <rect class="cls-13" x="90" y="82.63" width="0.69" height="1.94" rx="0.09" ry="0.09"></rect> <rect class="cls-14" x="90" y="83.12" width="0.69" height="1"></rect> <path class="cls-15" d="M90.41,83.62a.06.06,0,0,1-.12,0,.06.06,0,1,1,.12,0Z"></path> <rect class="cls-13" x="93.08" y="82.63" width="0.69" height="1.94" rx="0.09" ry="0.09"></rect> <rect class="cls-14" x="93.08" y="83.12" width="0.69" height="1"></rect> <path class="cls-15" d="M93.49,83.62s0,.06-.07.06a.06.06,0,0,1-.06-.06.06.06,0,0,1,.06-.06A.07.07,0,0,1,93.49,83.62Z"></path> <rect class="cls-13" x="83.86" y="82.63" width="0.69" height="1.94" rx="0.09" ry="0.09"></rect> <rect class="cls-14" x="83.86" y="83.12" width="0.69" height="1"></rect> <path class="cls-15" d="M84.27,83.62s0,.06-.07.06a.06.06,0,0,1-.06-.06.06.06,0,0,1,.06-.06A.07.07,0,0,1,84.27,83.62Z"></path> <rect class="cls-13" x="80.78" y="82.63" width="0.69" height="1.94" rx="0.09" ry="0.09"></rect> <rect class="cls-14" x="80.78" y="83.12" width="0.69" height="1"></rect> <path class="cls-15" d="M81.19,83.62a.06.06,0,0,1-.12,0,.06.06,0,0,1,.12,0Z"></path> <rect class="cls-13" x="86.93" y="88.8" width="0.69" height="1.94" rx="0.09" ry="0.09"></rect> <rect class="cls-14" x="86.93" y="89.28" width="0.69" height="1"></rect> <circle class="cls-15" cx="87.28" cy="89.78" r="0.06"></circle> <rect class="cls-13" x="90" y="88.8" width="0.69" height="1.94" rx="0.09" ry="0.09"></rect> <rect class="cls-14" x="90" y="89.28" width="0.69" height="1"></rect> <circle class="cls-15" cx="90.35" cy="89.78" r="0.06"></circle> <rect class="cls-13" x="93.08" y="88.8" width="0.69" height="1.94" rx="0.09" ry="0.09"></rect> <rect class="cls-14" x="93.08" y="89.28" width="0.69" height="1"></rect> <path class="cls-15" d="M93.49,89.78a.07.07,0,0,1-.07.07.07.07,0,0,1-.06-.07.06.06,0,0,1,.06-.06A.07.07,0,0,1,93.49,89.78Z"></path> <rect class="cls-13" x="83.86" y="88.8" width="0.69" height="1.94" rx="0.09" ry="0.09"></rect> <rect class="cls-14" x="83.86" y="89.28" width="0.69" height="1"></rect> <path class="cls-15" d="M84.27,89.78a.07.07,0,0,1-.07.07.07.07,0,0,1-.06-.07.06.06,0,0,1,.06-.06A.07.07,0,0,1,84.27,89.78Z"></path> <rect class="cls-13" x="80.78" y="88.8" width="0.69" height="1.94" rx="0.09" ry="0.09"></rect> <rect class="cls-14" x="80.78" y="89.28" width="0.69" height="1"></rect> <path class="cls-15" d="M81.19,89.78a.06.06,0,1,1-.12,0,.06.06,0,0,1,.12,0Z"></path> <rect class="cls-13" x="86.93" y="91.91" width="0.69" height="1.94" rx="0.09" ry="0.09"></rect> <rect class="cls-14" x="86.93" y="92.4" width="0.69" height="1"></rect> <circle class="cls-15" cx="87.28" cy="92.9" r="0.06"></circle> <rect class="cls-13" x="90" y="91.91" width="0.69" height="1.94" rx="0.09" ry="0.09"></rect> <rect class="cls-14" x="90" y="92.4" width="0.69" height="1"></rect> <circle class="cls-15" cx="90.35" cy="92.9" r="0.06"></circle> <rect class="cls-13" x="93.08" y="91.91" width="0.69" height="1.94" rx="0.09" ry="0.09"></rect> <rect class="cls-14" x="93.08" y="92.4" width="0.69" height="1"></rect> <path class="cls-15" d="M93.49,92.9a.07.07,0,0,1-.07.06.06.06,0,0,1,0-.12A.07.07,0,0,1,93.49,92.9Z"></path> <rect class="cls-13" x="83.86" y="91.91" width="0.69" height="1.94" rx="0.09" ry="0.09"></rect> <rect class="cls-14" x="83.86" y="92.4" width="0.69" height="1"></rect> <path class="cls-15" d="M84.27,92.9a.07.07,0,0,1-.07.06.06.06,0,0,1,0-.12A.07.07,0,0,1,84.27,92.9Z"></path> <rect class="cls-13" x="80.78" y="91.91" width="0.69" height="1.94" rx="0.09" ry="0.09"></rect> <rect class="cls-14" x="80.78" y="92.4" width="0.69" height="1"></rect> <path class="cls-15" d="M81.19,92.9a.06.06,0,1,1-.06-.06A.06.06,0,0,1,81.19,92.9Z"></path> <rect class="cls-13" x="86.93" y="85.7" width="0.69" height="1.94" rx="0.09" ry="0.09"></rect> <rect class="cls-14" x="86.93" y="86.18" width="0.69" height="1"></rect> <path class="cls-15" d="M87.34,86.69a.06.06,0,0,1-.06.06.06.06,0,0,1-.06-.06.05.05,0,0,1,.06-.06A.06.06,0,0,1,87.34,86.69Z"></path> <rect class="cls-13" x="90" y="85.7" width="0.69" height="1.94" rx="0.09" ry="0.09"></rect> <rect class="cls-14" x="90" y="86.18" width="0.69" height="1"></rect> <path class="cls-15" d="M90.41,86.69a.06.06,0,0,1-.12,0,.06.06,0,0,1,.12,0Z"></path> <rect class="cls-13" x="93.08" y="85.7" width="0.69" height="1.94" rx="0.09" ry="0.09"></rect> <rect class="cls-14" x="93.08" y="86.18" width="0.69" height="1"></rect> <path class="cls-15" d="M93.49,86.69a.07.07,0,0,1-.07.06.06.06,0,0,1-.06-.06.06.06,0,0,1,.06-.06S93.49,86.65,93.49,86.69Z"></path> <rect class="cls-13" x="83.86" y="85.7" width="0.69" height="1.94" rx="0.09" ry="0.09"></rect> <rect class="cls-14" x="83.86" y="86.18" width="0.69" height="1"></rect> <path class="cls-15" d="M84.27,86.69a.07.07,0,0,1-.07.06.06.06,0,0,1-.06-.06.06.06,0,0,1,.06-.06S84.27,86.65,84.27,86.69Z"></path> <rect class="cls-13" x="80.78" y="85.7" width="0.69" height="1.94" rx="0.09" ry="0.09"></rect> <rect class="cls-14" x="80.78" y="86.18" width="0.69" height="1"></rect> <path class="cls-15" d="M81.19,86.69a.06.06,0,0,1-.12,0,.06.06,0,0,1,.12,0Z"></path> <path class="cls-1" d="M214.47,62.67s-10.29-4.74-14.3-5-10.32-.43-11.29-.73-9.16-5.06-8.8-4a.87.87,0,0,0,.28.31c-.22,0-.33,0-.28.12.28.83,9.7,5.57,13.65,7.33l1.69.66c.74,0,8.29.37,8.29.37s3.56.48,6.47.92a28.81,28.81,0,0,1,3.69.69,2.33,2.33,0,0,1,.55,1l.05-1.22h0Z"></path> <path class="cls-2" d="M208.67,58.17c-4.27-2.23-8.49-4.87-10.91-4s-7.86.93-8.64.43-3.82-2.34-5.61-2.34-6.08-.21-3.4.93c.28.7,9.7,4.66,13.65,6.13l1.69.55c.74,0,8.29.31,8.29.31s3.56.4,6.47.77a10.88,10.88,0,0,1,3.36.91,5.94,5.94,0,0,1,.88.91l0-1.32A62.51,62.51,0,0,0,208.67,58.17Z"></path> <path class="cls-2" d="M275.4,49.82a.57.57,0,0,1,.6-.62c2.31-.16,8.51-.21,7.15-12.2-1.28-11.27-1.56-16.42-1.62-18.12-3.38-.59-5.36-3.56-5.79-6.93v0c-.41.4-.82.81-1.22,1.23a6.19,6.19,0,0,1-6.82,1.77c0,.6-.05,1.1-.06,1.44a.55.55,0,0,1-.55.53l-44,.05a.55.55,0,0,1-.55-.53c-.06-1.58-.07-7.22-.8-10.14A7.72,7.72,0,0,0,217.86,1,7.76,7.76,0,0,0,211.2.71a6.24,6.24,0,0,0-3.52,6.37c.15,2,.59,5.35.88,7a21.43,21.43,0,0,1,.1,4.19v0c0,.3,0,4.9-1.63,18.78-1.36,12,4.91,12.06,7.15,12.2a.59.59,0,0,1,.6.63c-.87,6.5-7.31,54.62-7.94,58.28s2,3.62,2.3,3.6h22.67a.55.55,0,0,0,.55-.56v-6.57a.56.56,0,0,1,.56-.56l24.34,0a.55.55,0,0,1,.55.55v6.58a.55.55,0,0,0,.55.55H281c.25,0,2.95.15,2.3-3.59S276.27,56.32,275.4,49.82Z"></path> <path class="cls-1" d="M214.39,63.85a2.52,2.52,0,0,0-1.76-.33,21.11,21.11,0,0,0-7.83,4.21c-3,2.54-7.34,6.33-9.57,8.72s-2.66,1.78-2.61,1.36c.18-1.45,1.06-1.55.76-1.89s-3.41,3.8-4,4.56a13.67,13.67,0,0,1-1.47,1.64c-.16.16-.44.13-.21-.7s-.16-.17-.16-.17-1.66,1.86-4.15,7.12-.65-.38-.65-.38,1-2.54,2.16-4.71,2.25-4,2.44-4.32-.17-.27-.17-.27-.81.5-.26-.49a32.56,32.56,0,0,1,1.82-3,29.49,29.49,0,0,1,3.76-4.41c.73-.61-.13-.56-.13-.56s-.83.28.06-1.21a7.24,7.24,0,0,1,2.39-2.33,51.51,51.51,0,0,1,7-4.1,27.19,27.19,0,0,1,7-2.16,6.1,6.1,0,0,1,3.19.23,22.27,22.27,0,0,1,2.39,2Z"></path> <path class="cls-2" d="M214.39,63.34a2.68,2.68,0,0,0-1.76-.32,21.67,21.67,0,0,0-7.83,4c-3,2.4-7.34,6-9.57,8.24s-2.66,1.67-2.61,1.27c.18-1.36,1.06-1.46.76-1.78s-3.41,3.59-4,4.3a14.37,14.37,0,0,1-1.47,1.56c-.16.15-.44.11-.21-.67s-.16-.16-.16-.16a31.05,31.05,0,0,0-4.15,6.72c-2.49,5-.65-.35-.65-.35s1-2.41,2.16-4.45,2.25-3.77,2.44-4.08-.17-.26-.17-.26-.81.48-.26-.46a30.65,30.65,0,0,1,1.82-2.79,28.55,28.55,0,0,1,3.76-4.16c.73-.58-.13-.53-.13-.53s-.83.27.06-1.14a7.18,7.18,0,0,1,2.39-2.2,51.34,51.34,0,0,1,7-3.86,28.12,28.12,0,0,1,7-2,6.42,6.42,0,0,1,3.19.21,22,22,0,0,1,2.39,1.88Z"></path> <path class="cls-1" d="M276.72,62.67s10.3-4.74,14.31-5,10.32-.43,11.29-.73,9.15-5.06,8.8-4a1.14,1.14,0,0,1-.28.31c.22,0,.33,0,.28.12-.28.83-9.7,5.57-13.65,7.33l-1.69.66c-.74,0-8.3.37-8.3.37s-3.56.48-6.47.92a29.24,29.24,0,0,0-3.69.69,2.46,2.46,0,0,0-.55,1l0-1.22h0Z"></path> <path class="cls-2" d="M282.53,58.17c4.27-2.23,8.49-4.87,10.9-4s7.87.93,8.65.43,3.81-2.34,5.6-2.34,6.09-.21,3.41.93c-.29.7-9.7,4.66-13.66,6.13l-1.68.55c-.74,0-8.3.31-8.3.31s-3.56.4-6.47.77a10.88,10.88,0,0,0-3.36.91,5.94,5.94,0,0,0-.88.91l0-1.32A62.11,62.11,0,0,1,282.53,58.17Z"></path> <path class="cls-1" d="M276.81,63.85a2.52,2.52,0,0,1,1.76-.33,21.26,21.26,0,0,1,7.83,4.21c3,2.54,7.33,6.33,9.57,8.72s2.66,1.78,2.61,1.36c-.19-1.45-1.06-1.55-.77-1.89s3.42,3.8,4,4.56a15.72,15.72,0,0,0,1.47,1.64c.17.16.45.13.21-.7s.17-.17.17-.17,1.66,1.86,4.15,7.12.65-.38.65-.38-1.06-2.54-2.17-4.71-2.25-4-2.43-4.32.16-.27.16-.27.81.5.26-.49a28.37,28.37,0,0,0-1.82-3,29.49,29.49,0,0,0-3.76-4.41c-.73-.61.14-.56.14-.56s.83.28-.07-1.21a7.14,7.14,0,0,0-2.39-2.33,50.83,50.83,0,0,0-7-4.1,27,27,0,0,0-7-2.16,6.05,6.05,0,0,0-3.18.23,22.27,22.27,0,0,0-2.39,2Z"></path> <path class="cls-2" d="M276.81,63.34a2.68,2.68,0,0,1,1.76-.32,21.82,21.82,0,0,1,7.83,4c3,2.4,7.33,6,9.57,8.24s2.66,1.67,2.61,1.27c-.19-1.36-1.06-1.46-.77-1.78s3.42,3.59,4,4.3a16.74,16.74,0,0,0,1.47,1.56c.17.15.45.11.21-.67s.17-.16.17-.16a31.05,31.05,0,0,1,4.15,6.72c2.49,5,.65-.35.65-.35s-1.06-2.41-2.17-4.45-2.25-3.77-2.43-4.08.16-.26.16-.26.81.48.26-.46a26.68,26.68,0,0,0-1.82-2.79,28.55,28.55,0,0,0-3.76-4.16c-.73-.58.14-.53.14-.53s.83.27-.07-1.14a7.08,7.08,0,0,0-2.39-2.2,50.68,50.68,0,0,0-7-3.86,27.88,27.88,0,0,0-7-2,6.38,6.38,0,0,0-3.18.21,22,22,0,0,0-2.39,1.88Z"></path> <polygon class="cls-1" points="224.36 70.43 210.94 70.43 213.25 53.19 224.36 53.19 224.36 70.43"></polygon> <polygon class="cls-1" points="219.96 104.49 206.54 104.49 208.85 87.25 219.96 87.25 219.96 104.49"></polygon> <polygon class="cls-1" points="265.61 70.43 279.04 70.43 276.73 53.19 265.61 53.19 265.61 70.43"></polygon> <polygon class="cls-1" points="270.01 104.49 283.44 104.49 281.13 87.25 270.01 87.25 270.01 104.49"></polygon> <path class="cls-1" d="M273.52,45.32H216.66a2,2,0,0,0-2,2h0a2,2,0,0,0,2,2h56.86a2,2,0,0,0,2-2h0A2,2,0,0,0,273.52,45.32Z"></path> <path class="cls-1" d="M252.47,47.84V38.38A7.4,7.4,0,0,0,245.09,31h0a7.4,7.4,0,0,0-7.38,7.38v9.46a.77.77,0,0,0,.76.77H251.7A.78.78,0,0,0,252.47,47.84Z"></path> <path class="cls-1" d="M208.56,14a21.43,21.43,0,0,1,.1,4.19v0c0,.23,0,3.07-.78,10.77,3.18.08,6.5.26,9.44-.65,3.62-1.13,4.77-4.84,5.16-8.38V14.16a44.79,44.79,0,0,0-.74-7.89A7.72,7.72,0,0,0,217.86,1,7.76,7.76,0,0,0,211.2.71a6.24,6.24,0,0,0-3.52,6.37C207.83,9.09,208.27,12.43,208.56,14Z"></path> <path class="cls-1" d="M281.57,14a22.29,22.29,0,0,0-.1,4.19v0c0,.23,0,3.07.79,10.77-3.19.08-6.51.26-9.45-.65-3.62-1.13-4.76-4.84-5.16-8.38V14.16a44.79,44.79,0,0,1,.74-7.89A7.66,7.66,0,0,1,278.94.71a6.23,6.23,0,0,1,3.51,6.37C282.31,9.09,281.86,12.43,281.57,14Z"></path> <path class="cls-16" d="M228.78,94.27h0a4.43,4.43,0,0,1-4.42-4.42V84.69a4.43,4.43,0,0,1,4.42-4.42h0a4.44,4.44,0,0,1,4.43,4.42v5.16A4.44,4.44,0,0,1,228.78,94.27Z"></path> <path class="cls-9" d="M228.78,87.25h0a2.34,2.34,0,0,1-2.33-2.33V83.78a2.34,2.34,0,0,1,2.33-2.33h0a2.34,2.34,0,0,1,2.34,2.33v1.14A2.34,2.34,0,0,1,228.78,87.25Z"></path> </g> </g> </svg> 